<?xml version="1.0" standalone="no"?>
<!DOCTYPE svg PUBLIC "-//W3C//DTD SVG 20010904//EN"
 "http://www.w3.org/TR/2001/REC-SVG-20010904/DTD/svg10.dtd">
<svg version="1.0" xmlns="http://www.w3.org/2000/svg"
 width="512.000000pt" height="512.000000pt" viewBox="0 0 512.000000 512.000000"
 preserveAspectRatio="xMidYMid meet">
<metadata>
Created by potrace 1.11, written by Peter Selinger 2001-2013
</metadata>
<g transform="translate(0.000000,512.000000) scale(0.100000,-0.100000)"
fill="#000000" stroke="none">
<path d="M1142 5093 c-40 -56 -42 -90 -42 -654 l0 -546 -38 -44 c-204 -236
-359 -540 -432 -850 -67 -286 -67 -622 0 -908 73 -310 228 -614 432 -850 l38
-44 0 -359 c0 -399 4 -431 56 -484 55 -54 86 -59 409 -59 254 0 296 2 336 18
84 32 114 84 125 220 4 48 9 87 11 87 3 0 39 -9 81 -20 261 -66 650 -66 917 1
280 70 531 189 757 360 106 80 287 261 367 367 325 430 465 960 395 1489 l-17
121 31 74 c171 413 156 952 -37 1339 -188 376 -538 644 -976 750 -77 18 -129
19 -1237 19 l-1157 0 -19 -27z m2153 -102 c229 -34 367 -75 530 -156 148 -74
237 -137 345 -246 174 -175 288 -400 337 -663 27 -140 24 -457 -5 -593 -120
-558 -507 -912 -1113 -1018 -154 -27 -365 -35 -946 -35 l-573 0 0 -915 0 -915
-305 0 -305 0 0 2281 0 2280 978 -4 c691 -3 1000 -7 1057 -16z"/>
<path d="M1870 3645 l0 -875 633 0 c698 0 741 3 905 62 236 86 410 284 483
553 19 68 22 106 22 255 0 198 -14 274 -78 409 -124 261 -344 419 -639 460
-49 7 -309 11 -702 11 l-624 0 0 -875z"/>
</g>
</svg>
